<svg preserveAspectRatio="none" overflow="visible" style="display: block;" width="20.75" height="14.75" viewBox="0 0 20.75 14.75" fill="none" xmlns="http://www.w3.org/2000/svg">
<g id="Group">
<path id="Vector" d="M14.375 3.375H20.375M14.375 11.375H20.375M4.375 11.375C4.375 12.307 4.375 12.773 4.527 13.14C4.62751 13.3828 4.7749 13.6034 4.96072 13.7893C5.14655 13.9751 5.36718 14.1225 5.61 14.223C5.977 14.375 6.443 14.375 7.375 14.375H7.708C10.201 14.375 11.447 14.375 12.375 13.839C12.983 13.4879 13.4879 12.983 13.839 12.375C14.375 11.447 14.375 10.201 14.375 7.708V7.042C14.375 4.549 14.375 3.303 13.839 2.375C13.4879 1.76697 12.983 1.26206 12.375 0.911C11.447 0.375 10.201 0.375 7.708 0.375H7.375C6.443 0.375 5.977 0.375 5.61 0.527C5.36718 0.627513 5.14655 0.774896 4.96072 0.960723C4.7749 1.14655 4.62751 1.36718 4.527 1.61C4.375 1.977 4.375 2.443 4.375 3.375" stroke="#2C2C2C" stroke-width="0.75" stroke-linecap="round" stroke-linejoin="round"/>
<path id="Vector_2" d="M0.375 11.375H7.375C8.789 11.375 9.496 11.375 9.935 10.935C10.375 10.496 10.375 9.789 10.375 8.375V6.375C10.375 4.961 10.375 4.254 9.935 3.815C9.497 3.375 8.79 3.375 7.375 3.375H0.375M7.375 7.375H11.875M18.502 7.375H18.377M18.627 7.375C18.627 7.4413 18.6007 7.50489 18.5538 7.55178C18.5069 7.59866 18.4433 7.625 18.377 7.625C18.3107 7.625 18.2471 7.59866 18.2002 7.55178C18.1533 7.50489 18.127 7.4413 18.127 7.375C18.127 7.3087 18.1533 7.24511 18.2002 7.19822C18.2471 7.15134 18.3107 7.125 18.377 7.125C18.4433 7.125 18.5069 7.15134 18.5538 7.19822C18.6007 7.24511 18.627 7.3087 18.627 7.375Z" stroke="#2C2C2C" stroke-width="0.75" stroke-linecap="round" stroke-linejoin="round"/>
<path id="Vector_3" d="M2.502 7.375H2.377M2.627 7.375C2.627 7.4413 2.60066 7.50489 2.55378 7.55178C2.50689 7.59866 2.4433 7.625 2.377 7.625C2.3107 7.625 2.24711 7.59866 2.20022 7.55178C2.15334 7.50489 2.127 7.4413 2.127 7.375C2.127 7.3087 2.15334 7.24511 2.20022 7.19822C2.24711 7.15134 2.3107 7.125 2.377 7.125C2.4433 7.125 2.50689 7.15134 2.55378 7.19822C2.60066 7.24511 2.627 7.3087 2.627 7.375Z" stroke="#2C2C2C" stroke-width="0.75" stroke-linecap="round" stroke-linejoin="round"/>
</g>
</svg>
